<svg width="60" height="60" viewBox="0 0 60 60" fill="none" xmlns="http://www.w3.org/2000/svg">
<path d="M52.4848 35.2387C48.6483 36.6375 44.4023 34.6597 43.0043 30.8218C41.6056 26.9839 43.5824 22.7395 47.4203 21.3406C51.2577 19.9418 55.5028 21.9187 56.9016 25.7566C58.3004 29.5947 56.3235 33.8399 52.4848 35.2387ZM10.2586 38.2733C11.1808 37.4661 12.5726 36.2476 15.5908 36.2476C18.6089 36.2476 19.9998 37.4661 20.9212 38.2726C21.5372 38.8129 21.7222 38.9752 22.795 38.9752C23.8685 38.9752 24.0536 38.8129 24.6679 38.2734C25.5902 37.4662 26.982 36.2477 30 36.2477C33.0181 36.2477 34.4082 37.4662 35.3306 38.2727C35.9449 38.813 36.1316 38.9753 37.2043 38.9753C38.277 38.9753 38.4637 38.813 39.0772 38.2735C39.5946 37.8215 40.2727 37.2449 41.2896 36.8212C41.3116 35.4405 40.8926 33.6786 39.6017 31.8019C38.9252 30.8188 33.1001 22.664 33.1001 22.664L40.2114 17.0531C41.3393 16.1632 41.5322 14.5281 40.6423 13.401C39.7515 12.2731 38.1179 12.0825 36.9901 12.9701L27.9358 20.1143C26.8473 20.9727 26.6244 22.5339 27.4278 23.6632L32.563 30.8792L12.8491 35.671C11.0289 36.1137 9.62853 37.3683 8.91187 38.9521C9.53954 38.8956 9.7632 38.7082 10.2586 38.2733ZM56.0817 41.2356C56.7787 40.6267 57.2797 40.1849 58.8186 40.1849C59.4723 40.1849 60 39.6572 60 39.0035C60 38.3513 59.4723 37.8221 58.8186 37.8221C56.3929 37.8221 55.357 38.7293 54.5253 39.4587C53.8007 40.092 53.2778 40.5495 51.6152 40.5495C49.9509 40.5495 49.428 40.092 48.7033 39.4572C47.8716 38.7286 46.8376 37.8222 44.4101 37.8222C41.9843 37.8222 40.9486 38.7286 40.1169 39.4572C39.3923 40.092 38.8693 40.5495 37.2059 40.5495C35.5417 40.5495 35.0195 40.092 34.2949 39.4572C33.4624 38.7286 32.4274 37.8222 30.0016 37.8222C27.575 37.8222 26.54 38.7286 25.7075 39.4572C24.9845 40.092 24.4607 40.5495 22.7965 40.5495C21.1323 40.5495 20.6094 40.092 19.8855 39.4572C19.053 38.7286 18.0181 37.8222 15.5922 37.8222C13.1664 37.8222 12.1307 38.7286 11.2982 39.4572C10.5752 40.092 10.0522 40.5495 8.38717 40.5495C6.72297 40.5495 6.19995 40.092 5.47617 39.4572C4.64209 38.7294 3.60714 37.8222 1.18131 37.8222C0.529264 37.8222 0 38.3514 0 39.0036C0 39.6573 0.529264 40.185 1.18141 40.185C2.71886 40.185 3.22206 40.626 3.91751 41.2357C4.77131 41.9831 5.8338 42.9125 8.38558 42.9125C10.9374 42.9125 12 41.9831 12.8537 41.2357C13.5499 40.6261 14.0532 40.185 15.5907 40.185C17.128 40.185 17.6313 40.626 18.3268 41.2357C19.1806 41.9831 20.2429 42.9125 22.7948 42.9125C25.3466 42.9125 26.4092 41.9831 27.2629 41.2357C27.9591 40.6261 28.4617 40.185 29.9998 40.185C31.5373 40.185 32.039 40.626 32.7359 41.2357C33.5897 41.9831 34.6522 42.9125 37.2041 42.9125C39.7551 42.9125 40.8185 41.9831 41.6722 41.2357C42.3692 40.6261 42.8701 40.185 44.4091 40.185C45.9481 40.185 46.4506 40.626 47.1468 41.2357C47.9997 41.9831 49.0623 42.9125 51.615 42.9125C54.1662 42.9124 55.2287 41.9838 56.0817 41.2356ZM56.0817 41.2356C56.7787 40.6267 57.2797 40.1849 58.8186 40.1849C59.4723 40.1849 60 39.6572 60 39.0035C60 38.3513 59.4723 37.8221 58.8186 37.8221C56.3929 37.8221 55.357 38.7293 54.5253 39.4587C53.8007 40.092 53.2778 40.5495 51.6152 40.5495C49.9509 40.5495 49.428 40.092 48.7033 39.4572C47.8716 38.7286 46.8376 37.8222 44.4101 37.8222C41.9843 37.8222 40.9486 38.7286 40.1169 39.4572C39.3923 40.092 38.8693 40.5495 37.2059 40.5495C35.5417 40.5495 35.0195 40.092 34.2949 39.4572C33.4624 38.7286 32.4274 37.8222 30.0016 37.8222C27.575 37.8222 26.54 38.7286 25.7075 39.4572C24.9845 40.092 24.4607 40.5495 22.7965 40.5495C21.1323 40.5495 20.6094 40.092 19.8855 39.4572C19.053 38.7286 18.0181 37.8222 15.5922 37.8222C13.1664 37.8222 12.1307 38.7286 11.2982 39.4572C10.5752 40.092 10.0522 40.5495 8.38717 40.5495C6.72297 40.5495 6.19995 40.092 5.47617 39.4572C4.64209 38.7294 3.60714 37.8222 1.18131 37.8222C0.529264 37.8222 0 38.3514 0 39.0036C0 39.6573 0.529264 40.185 1.18141 40.185C2.71886 40.185 3.22206 40.626 3.91751 41.2357C4.77131 41.9831 5.8338 42.9125 8.38558 42.9125C10.9374 42.9125 12 41.9831 12.8537 41.2357C13.5499 40.6261 14.0532 40.185 15.5907 40.185C17.128 40.185 17.6313 40.626 18.3268 41.2357C19.1806 41.9831 20.2429 42.9125 22.7948 42.9125C25.3466 42.9125 26.4092 41.9831 27.2629 41.2357C27.9591 40.6261 28.4617 40.185 29.9998 40.185C31.5373 40.185 32.039 40.626 32.7359 41.2357C33.5897 41.9831 34.6522 42.9125 37.2041 42.9125C39.7551 42.9125 40.8185 41.9831 41.6722 41.2357C42.3692 40.6261 42.8701 40.185 44.4091 40.185C45.9481 40.185 46.4506 40.626 47.1468 41.2357C47.9997 41.9831 49.0623 42.9125 51.615 42.9125C54.1662 42.9124 55.2287 41.9838 56.0817 41.2356ZM56.0817 45.9123C56.7787 45.302 57.2797 44.8624 58.8186 44.8624C59.4723 44.8624 60 44.3332 60 43.681C60 43.0289 59.4723 42.4996 58.8186 42.4996C56.3929 42.4996 55.357 43.4045 54.5253 44.1339C53.8023 44.7679 53.2794 45.2255 51.6152 45.2255C49.9509 45.2255 49.428 44.768 48.7033 44.1339C47.8716 43.4045 46.8359 42.4996 44.4101 42.4996C41.9843 42.4996 40.9486 43.4045 40.1169 44.1339C39.3923 44.7679 38.8693 45.2255 37.2059 45.2255C35.5417 45.2255 35.0195 44.768 34.2949 44.1339C33.4624 43.4045 32.4274 42.4996 30.0016 42.4996C27.575 42.4996 26.54 43.4045 25.7075 44.1339C24.9845 44.7679 24.4607 45.2255 22.7965 45.2255C21.1323 45.2255 20.6094 44.768 19.8855 44.1339C19.053 43.4045 18.0181 42.4996 15.5922 42.4996C13.1664 42.4996 12.1307 43.4045 11.2982 44.1339C10.5752 44.7679 10.0522 45.2255 8.38717 45.2255C6.72297 45.2255 6.19995 44.768 5.47617 44.1339C4.64367 43.4045 3.60873 42.4996 1.18289 42.4996C0.530751 42.4996 0.00148642 43.0289 0.00148642 43.681C0.00148642 44.3332 0.530751 44.8624 1.18289 44.8624C2.72035 44.8624 3.22365 45.302 3.91909 45.9115C4.77289 46.659 5.83529 47.5884 8.38717 47.5884C10.939 47.5884 12.0015 46.659 12.8545 45.9115C13.5515 45.302 14.0548 44.8624 15.5921 44.8624C17.1295 44.8624 17.6328 45.302 18.3283 45.9115C19.1821 46.659 20.2445 47.5884 22.7964 47.5884C25.3483 47.5884 26.4108 46.659 27.2638 45.9115C27.9608 45.302 28.4633 44.8624 30.0015 44.8624C31.5389 44.8624 32.0407 45.302 32.7385 45.9115C33.5914 46.659 34.6539 47.5884 37.2058 47.5884C39.7569 47.5884 40.8201 46.659 41.6739 45.9115C42.3709 45.302 42.8719 44.8624 44.4108 44.8624C45.9498 44.8624 46.4524 45.302 47.1485 45.9115C48.0023 46.659 49.064 47.5884 51.6167 47.5884C54.1662 47.5884 55.2287 46.6591 56.0817 45.9123Z" fill="#0A1F2A"/>
</svg>
