<svg width="60" height="60" viewBox="0 0 60 60" fill="none" xmlns="http://www.w3.org/2000/svg">
<path d="M5.625 31.875H10.6082C10.4214 32.3947 10.3929 32.9581 10.5262 33.494C10.6596 34.0299 10.9488 34.5142 11.3573 34.8858L19.054 41.9405L19.0547 41.9398C19.0611 41.9456 19.0664 41.9522 19.0736 41.9578L31.2368 52.5H30.9375C30.6889 52.5 30.4504 52.5988 30.2746 52.7746C30.0988 52.9504 30 53.1889 30 53.4375V57.1875C30 57.4361 30.0988 57.6746 30.2746 57.8504C30.4504 58.0262 30.6889 58.125 30.9375 58.125H42.1875C42.4361 58.125 42.6746 58.0262 42.8504 57.8504C43.0262 57.6746 43.125 57.4361 43.125 57.1875V53.4375C43.125 53.1889 43.0262 52.9504 42.8504 52.7746C42.6746 52.5988 42.4361 52.5 42.1875 52.5V51.0132L42.6895 50.5112C43.1262 50.077 43.4724 49.5604 43.708 48.9915C43.9437 48.4225 44.0642 47.8125 44.0625 47.1967V41.4531L47.4609 33.9765C47.7633 33.3145 47.796 32.5607 47.5519 31.875H54.375C55.1207 31.8741 55.8355 31.5775 56.3628 31.0503C56.89 30.523 57.1866 29.8082 57.1875 29.0625V27.1875C57.1875 26.9389 57.0887 26.7004 56.9129 26.5246C56.7371 26.3488 56.4986 26.25 56.25 26.25H52.5V25.3125C52.5 14.4567 43.6683 5.625 32.8125 5.625V3.75H33.75C33.9986 3.75 34.2371 3.65123 34.4129 3.47541C34.5887 3.2996 34.6875 3.06114 34.6875 2.8125C34.6875 2.56386 34.5887 2.3254 34.4129 2.14959C34.2371 1.97377 33.9986 1.875 33.75 1.875H26.25C26.0014 1.875 25.7629 1.97377 25.5871 2.14959C25.4113 2.3254 25.3125 2.56386 25.3125 2.8125C25.3125 3.06114 25.4113 3.2996 25.5871 3.47541C25.7629 3.65123 26.0014 3.75 26.25 3.75H27.1875V5.625C16.3317 5.625 7.5 14.4567 7.5 25.3125V26.25H3.75C3.50136 26.25 3.2629 26.3488 3.08709 26.5246C2.91127 26.7004 2.8125 26.9389 2.8125 27.1875V29.0625C2.81337 29.8082 3.10996 30.523 3.63722 31.0503C4.16448 31.5775 4.87935 31.8741 5.625 31.875ZM12.384 32.4727C12.45 32.2949 12.5694 32.142 12.7259 32.035C12.8824 31.9279 13.0682 31.872 13.2578 31.875H13.793C13.9729 31.8752 14.149 31.9271 14.3003 32.0245C14.4516 32.122 14.5718 32.2608 14.6464 32.4245L15.3512 33.9749V33.9763L16.9309 37.4515L12.6243 33.5039C12.4825 33.378 12.3832 33.2112 12.3402 33.0265C12.2972 32.8418 12.3125 32.6483 12.384 32.4727ZM41.25 56.25H31.875V54.375H41.25V56.25ZM45.6888 32.305C45.7751 32.4363 45.8265 32.5875 45.8379 32.7442C45.8493 32.9009 45.8205 33.058 45.7541 33.2004L42.2715 40.862C42.2162 40.9839 42.1875 41.1162 42.1875 41.25V47.1967C42.1885 47.5662 42.1162 47.9322 41.9748 48.2736C41.8334 48.6149 41.6257 48.9249 41.3638 49.1855L40.5871 49.9621C40.5 50.0491 40.431 50.1525 40.3839 50.2662C40.3367 50.38 40.3125 50.5019 40.3125 50.625V52.5H34.0997L20.4562 40.6758L17.0578 33.2005C16.9929 33.0577 16.9648 32.9008 16.9762 32.7443C16.9877 32.5878 17.0382 32.4366 17.1232 32.3047C17.2082 32.1728 17.3249 32.0643 17.4627 31.9893C17.6005 31.9142 17.755 31.8749 17.9119 31.875H18.5286C18.7029 31.8744 18.8738 31.9226 19.022 32.0142C19.1702 32.1058 19.2898 32.2371 19.3672 32.3932L22.599 38.8568C22.7017 39.0622 22.8762 39.2227 23.0893 39.308L32.4643 43.058C32.6473 43.1311 32.8487 43.1448 33.0398 43.097L36.7898 42.1595C36.9156 42.1281 37.0334 42.0709 37.1359 41.9916C37.2385 41.9124 37.3234 41.8127 37.3855 41.6989L42.4775 32.3636C42.5582 32.2157 42.6772 32.0923 42.8221 32.0063C42.967 31.9203 43.1323 31.875 43.3008 31.875H44.9009C45.058 31.8736 45.2128 31.9123 45.3507 31.9876C45.4886 32.0628 45.605 32.1721 45.6888 32.305ZM21.2044 31.875H40.6083L35.9364 40.4402L32.8792 41.2044L24.1172 37.6992L21.2044 31.875ZM29.0625 3.75H30.9375V5.625H29.0625V3.75ZM9.375 25.3125C9.375 15.4907 17.3657 7.5 27.1875 7.5H32.8125C42.6343 7.5 50.625 15.4907 50.625 25.3125V26.25H9.375V25.3125ZM4.6875 28.125H55.3125V29.0625C55.3122 29.3111 55.2134 29.5493 55.0376 29.7251C54.8619 29.9009 54.6236 29.9997 54.375 30H5.625C5.37645 29.9997 5.13815 29.9009 4.9624 29.7251C4.78664 29.5493 4.68778 29.3111 4.6875 29.0625V28.125Z" fill="#0A1F2A"/>
</svg>
