<svg width="60" height="60" viewBox="0 0 60 60" fill="none" xmlns="http://www.w3.org/2000/svg">
<g clip-path="url(#clip0)">
<path d="M29.8829 54.6679C32.0187 54.6679 33.7501 52.9365 33.7501 50.8007C33.7501 48.6649 32.0187 46.9335 29.8829 46.9335C27.7471 46.9335 26.0157 48.6649 26.0157 50.8007C26.0157 52.9365 27.7471 54.6679 29.8829 54.6679Z" fill="#0A1F2A"/>
<path d="M59.3711 18.1481C51.6684 9.8837 41.2379 5.33215 29.9999 5.33203C18.7628 5.33215 8.33229 9.8837 0.629448 18.1481C-0.252972 19.095 -0.200823 20.5781 0.74605 21.4606C1.69304 22.3431 3.17605 22.291 4.05858 21.344C10.8648 14.0414 20.0776 10.0196 30.0007 10.0195C39.9229 10.0196 49.1357 14.0414 55.942 21.344C56.4036 21.8393 57.0295 22.0898 57.657 22.0898C58.2292 22.0898 58.8029 21.8815 59.2545 21.4606C60.2014 20.578 60.2536 19.095 59.3711 18.1481Z" fill="#0A1F2A"/>
<path d="M50.7648 27.8271C45.0711 22.0903 37.6966 18.931 29.9997 18.9313C22.3011 18.9314 14.9265 22.0908 9.23448 27.8273C8.32277 28.7462 8.32851 30.2301 9.24737 31.1418C10.1662 32.0536 11.6502 32.0478 12.5619 31.1289C17.3672 26.2861 23.56 23.6189 29.9997 23.6188C36.4378 23.6185 42.6306 26.2858 47.4377 31.1292C47.8959 31.5908 48.4984 31.8219 49.1012 31.8219C49.698 31.8219 50.2951 31.5952 50.7524 31.1416C51.671 30.2298 51.6767 28.7458 50.7648 27.8271Z" fill="#0A1F2A"/>
<path d="M41.3848 37.5341C38.3356 34.5132 33.9648 32.6367 29.9779 32.6367C29.9774 32.6367 29.9766 32.6367 29.9761 32.6367H29.8073C29.8066 32.6367 29.8062 32.6367 29.8055 32.6367C25.8184 32.6367 21.4474 34.5133 18.3983 37.5341C17.4788 38.4452 17.4719 39.9291 18.3829 40.8487C18.8412 41.3112 19.4445 41.5429 20.0479 41.5429C20.644 41.5429 21.2404 41.3168 21.6973 40.8641C23.868 38.7135 27.0504 37.3241 29.8057 37.3241C29.8061 37.3241 29.8066 37.3241 29.8069 37.3241H29.9765C29.977 37.3241 29.9771 37.3241 29.9775 37.3241C32.7325 37.3241 35.9152 38.7136 38.0856 40.8641C39.0051 41.775 40.4892 41.7685 41.4001 40.8487C42.3113 39.9292 42.3044 38.4452 41.3848 37.5341Z" fill="#0A1F2A"/>
</g>
<defs>
<clipPath id="clip0">
<rect width="60" height="60" fill="white"/>
</clipPath>
</defs>
</svg>
