<svg width="60" height="60" viewBox="0 0 60 60" fill="none" xmlns="http://www.w3.org/2000/svg">
<path d="M47.518 23.6662C45.7878 23.6662 44.1195 24.037 42.5747 24.6549L40.4737 20.5766V14.0884C40.4737 13.7177 40.2266 13.3469 39.8558 13.2234L34.9125 11.3696C34.4181 11.1842 33.9238 11.4314 33.7384 11.9257C33.553 12.4201 33.8002 12.9144 34.2945 13.0998L38.6818 14.7064V19.9587H20.5767V18.1667H22.8012C23.2956 18.1667 23.7281 17.7342 23.7281 17.2398C23.7281 16.7455 23.2956 16.313 22.8012 16.313H17.0546C16.5602 16.313 16.1277 16.7455 16.1277 17.2398C16.1277 17.7342 16.5602 18.1667 17.0546 18.1667H18.723V20.7002L16.931 24.5931C15.5716 24.037 14.0268 23.728 12.482 23.728C5.62307 23.728 0 29.2893 0 36.21C0 43.1307 5.56128 48.692 12.482 48.692C19.0319 48.692 24.4078 43.5632 24.9022 37.1369H28.9186C29.2276 37.1369 29.4748 37.0133 29.6601 36.7661L39.3615 22.7393L40.9063 25.6435C37.3841 27.7445 35.036 31.6992 35.036 36.1482C35.036 43.0071 40.5973 48.6302 47.518 48.6302C54.4387 48.6302 60 43.0689 60 36.1482C60 29.2275 54.4387 23.6662 47.518 23.6662ZM12.482 46.7764C6.61174 46.7764 1.85376 42.0184 1.85376 36.1482C1.85376 30.2779 6.61174 25.52 12.482 25.52C13.7796 25.52 15.0154 25.7671 16.1277 26.1997L11.6169 35.7774C11.6169 35.7774 11.6169 35.7774 11.6169 35.8392C11.5551 35.9628 11.5551 36.0246 11.5551 36.1482C11.5551 36.1482 11.5551 36.1482 11.5551 36.21C11.5551 36.3336 11.5551 36.3953 11.6169 36.5189V36.5807C11.6169 36.6425 11.6169 36.6425 11.6787 36.7043C11.6787 36.7661 11.7405 36.7661 11.8023 36.8279C11.8023 36.8279 11.8023 36.8279 11.8023 36.8897C11.8641 36.9515 11.9876 37.0133 12.0494 37.0751H12.1112C12.2348 37.1369 12.2966 37.1369 12.4202 37.1369H22.9866C22.5541 42.5128 18.0433 46.7764 12.482 46.7764ZM13.9032 35.2213L17.7961 27.003C20.7003 28.6714 22.7394 31.6992 23.0484 35.2213H13.9032ZM28.4243 35.2213H24.8404C24.5314 30.9577 22.0597 27.3119 18.5376 25.2728L20.206 21.7506H37.6931L28.4243 35.2213ZM47.4562 46.7764C41.586 46.7764 36.828 42.0184 36.828 36.1482C36.828 32.3789 38.8054 29.1039 41.7714 27.1883L46.6529 36.5807C46.8383 36.8897 47.1473 37.0751 47.4562 37.0751C47.5798 37.0751 47.7652 37.0133 47.8888 36.9515C48.3213 36.7043 48.5067 36.1482 48.2595 35.7156L43.378 26.3233C44.6756 25.8289 46.035 25.52 47.4562 25.52C53.3265 25.52 58.0844 30.2779 58.0844 36.1482C58.0844 42.0184 53.3265 46.7764 47.4562 46.7764Z" fill="#0A1F2A"/>
</svg>
