<svg width="47" height="43" viewBox="0 0 47 43" fill="none" xmlns="http://www.w3.org/2000/svg">
<rect x="0.5" y="0.537109" width="45.1994" height="41.8887" rx="11.5" stroke="white"/>
<path d="M28.7544 8.96818L25.5755 8.96289C22.0041 8.96289 19.6961 11.4177 19.6961 15.2172V18.1009H16.4999C16.2237 18.1009 16 18.333 16 18.6193V22.7974C16 23.0837 16.2239 23.3156 16.4999 23.3156H19.6961V33.8582C19.6961 34.1445 19.9198 34.3764 20.196 34.3764H24.3661C24.6423 34.3764 24.866 34.1443 24.866 33.8582V23.3156H28.6032C28.8794 23.3156 29.103 23.0837 29.103 22.7974L29.1046 18.6193C29.1046 18.4818 29.0518 18.3502 28.9581 18.2529C28.8646 18.1556 28.7371 18.1009 28.6044 18.1009H24.866V15.6563C24.866 14.4814 25.1361 13.885 26.6124 13.885L28.7539 13.8842C29.0298 13.8842 29.2535 13.652 29.2535 13.366V9.48637C29.2535 9.20057 29.0301 8.96871 28.7544 8.96818Z" fill="white"/>
</svg>
