<svg width="47" height="43" viewBox="0 0 47 43" fill="none" xmlns="http://www.w3.org/2000/svg">
<rect x="0.5" y="0.5" width="45.1994" height="41.8887" rx="11.5" stroke="white"/>
<path fill-rule="evenodd" clip-rule="evenodd" d="M26.8315 10.6318H17.9958C13.93 10.6318 10.6328 13.793 10.6328 17.6911V26.1622C10.6328 30.0604 13.93 33.2215 17.9958 33.2215H26.8315C30.8974 33.2215 34.1945 30.0604 34.1945 26.1622V17.6911C34.1945 13.793 30.8974 10.6318 26.8315 10.6318ZM31.9856 26.1622C31.9856 28.8871 29.6736 31.1037 26.8315 31.1037H17.9958C15.1537 31.1037 12.8417 28.8871 12.8417 26.1622V17.6911C12.8417 14.9662 15.1537 12.7496 17.9958 12.7496H26.8315C29.6736 12.7496 31.9856 14.9662 31.9856 17.6911V26.1622ZM22.4137 16.2792C19.1607 16.2792 16.5232 18.8079 16.5232 21.9267C16.5232 25.0454 19.1607 27.5741 22.4137 27.5741C25.6666 27.5741 28.3041 25.0454 28.3041 21.9267C28.3041 18.8079 25.6666 16.2792 22.4137 16.2792ZM22.4137 25.4563C20.3844 25.4563 18.7322 23.8722 18.7322 21.9267C18.7322 19.9797 20.3844 18.397 22.4137 18.397C24.4429 18.397 26.0952 19.9797 26.0952 21.9267C26.0952 23.8722 24.4429 25.4563 22.4137 25.4563ZM29.5307 15.8557C29.5307 16.2713 29.1794 16.6082 28.7459 16.6082C28.3124 16.6082 27.961 16.2713 27.961 15.8557C27.961 15.4401 28.3124 15.1032 28.7459 15.1032C29.1794 15.1032 29.5307 15.4401 29.5307 15.8557Z" fill="white"/>
</svg>
