<svg width="168" height="46" viewBox="0 0 168 46" fill="none" xmlns="http://www.w3.org/2000/svg">
<path d="M16.01 19.6V22H1.55V0.699999H15.74V3.1H4.25V10H14.24V12.25H4.25V19.6H16.01ZM20.3141 0.699999L27.3641 18.61L34.3841 0.699999H37.2341L28.5941 22H26.1341L17.4641 0.699999H20.3141ZM47.9244 22.15C46.4244 22.15 45.0644 21.85 43.8444 21.25C42.6244 20.65 41.5644 19.84 40.6644 18.82C39.7844 17.78 39.1044 16.62 38.6244 15.34C38.1444 14.04 37.9044 12.71 37.9044 11.35C37.9044 9.93 38.1544 8.58 38.6544 7.3C39.1744 6 39.8844 4.85 40.7844 3.85C41.7044 2.83 42.7744 2.03 43.9944 1.45C45.2144 0.849999 46.5444 0.549999 47.9844 0.549999C49.4844 0.549999 50.8444 0.859999 52.0644 1.48C53.2844 2.1 54.3344 2.93 55.2144 3.97C56.0944 5.01 56.7744 6.17 57.2544 7.45C57.7344 8.73 57.9744 10.04 57.9744 11.38C57.9744 12.8 57.7244 14.16 57.2244 15.46C56.7244 16.74 56.0144 17.89 55.0944 18.91C54.1944 19.91 53.1344 20.7 51.9144 21.28C50.6944 21.86 49.3644 22.15 47.9244 22.15ZM40.6344 11.35C40.6344 12.43 40.8044 13.48 41.1444 14.5C41.5044 15.5 42.0044 16.39 42.6444 17.17C43.2844 17.95 44.0544 18.57 44.9544 19.03C45.8544 19.49 46.8544 19.72 47.9544 19.72C49.0944 19.72 50.1144 19.48 51.0144 19C51.9144 18.52 52.6744 17.88 53.2944 17.08C53.9344 16.28 54.4144 15.38 54.7344 14.38C55.0744 13.38 55.2444 12.37 55.2444 11.35C55.2444 10.27 55.0644 9.23 54.7044 8.23C54.3644 7.23 53.8644 6.34 53.2044 5.56C52.5644 4.76 51.7944 4.14 50.8944 3.7C50.0144 3.24 49.0344 3.01 47.9544 3.01C46.8144 3.01 45.7944 3.25 44.8944 3.73C43.9944 4.19 43.2244 4.82 42.5844 5.62C41.9644 6.42 41.4844 7.32 41.1444 8.32C40.8044 9.3 40.6344 10.31 40.6344 11.35ZM61.7258 22V0.699999H64.4258V19.6H76.3058V22H61.7258ZM87.2736 22.15C85.5736 22.15 84.1436 21.86 82.9836 21.28C81.8236 20.68 80.8936 19.88 80.1936 18.88C79.4936 17.86 78.9836 16.71 78.6636 15.43C78.3436 14.15 78.1836 12.83 78.1836 11.47V0.699999H80.8836V11.47C80.8836 12.51 80.9836 13.53 81.1836 14.53C81.4036 15.51 81.7536 16.39 82.2336 17.17C82.7136 17.95 83.3636 18.57 84.1836 19.03C85.0036 19.49 86.0236 19.72 87.2436 19.72C88.4836 19.72 89.5136 19.49 90.3336 19.03C91.1536 18.55 91.8036 17.92 92.2836 17.14C92.7636 16.34 93.1036 15.45 93.3036 14.47C93.5236 13.49 93.6336 12.49 93.6336 11.47V0.699999H96.3336V11.47C96.3336 12.91 96.1636 14.28 95.8236 15.58C95.5036 16.86 94.9836 17.99 94.2636 18.97C93.5436 19.95 92.6036 20.73 91.4436 21.31C90.3036 21.87 88.9136 22.15 87.2736 22.15ZM116.49 3.1H109.14V22H106.44V3.1H99.0901V0.699999H116.49V3.1ZM119.558 22V0.699999H122.258V22H119.558ZM135.991 22.15C134.491 22.15 133.131 21.85 131.911 21.25C130.691 20.65 129.631 19.84 128.731 18.82C127.851 17.78 127.171 16.62 126.691 15.34C126.211 14.04 125.971 12.71 125.971 11.35C125.971 9.93 126.221 8.58 126.721 7.3C127.241 6 127.951 4.85 128.851 3.85C129.771 2.83 130.841 2.03 132.061 1.45C133.281 0.849999 134.611 0.549999 136.051 0.549999C137.551 0.549999 138.911 0.859999 140.131 1.48C141.351 2.1 142.401 2.93 143.281 3.97C144.161 5.01 144.841 6.17 145.321 7.45C145.801 8.73 146.041 10.04 146.041 11.38C146.041 12.8 145.791 14.16 145.291 15.46C144.791 16.74 144.081 17.89 143.161 18.91C142.261 19.91 141.201 20.7 139.981 21.28C138.761 21.86 137.431 22.15 135.991 22.15ZM128.701 11.35C128.701 12.43 128.871 13.48 129.211 14.5C129.571 15.5 130.071 16.39 130.711 17.17C131.351 17.95 132.121 18.57 133.021 19.03C133.921 19.49 134.921 19.72 136.021 19.72C137.161 19.72 138.181 19.48 139.081 19C139.981 18.52 140.741 17.88 141.361 17.08C142.001 16.28 142.481 15.38 142.801 14.38C143.141 13.38 143.311 12.37 143.311 11.35C143.311 10.27 143.131 9.23 142.771 8.23C142.431 7.23 141.931 6.34 141.271 5.56C140.631 4.76 139.861 4.14 138.961 3.7C138.081 3.24 137.101 3.01 136.021 3.01C134.881 3.01 133.861 3.25 132.961 3.73C132.061 4.19 131.291 4.82 130.651 5.62C130.031 6.42 129.551 7.32 129.211 8.32C128.871 9.3 128.701 10.31 128.701 11.35ZM152.492 5.68V22H149.792V0.699999H152.072L165.092 17.35V0.729998H167.792V22H165.332L152.492 5.68ZM12.12 30.8V45H10.32V38.54H2.5V45H0.7V30.8H2.5V36.94H10.32V30.8H12.12ZM21.2842 45.1C20.2842 45.1 19.3776 44.9 18.5642 44.5C17.7509 44.1 17.0442 43.56 16.4442 42.88C15.8576 42.1867 15.4042 41.4133 15.0842 40.56C14.7642 39.6933 14.6042 38.8067 14.6042 37.9C14.6042 36.9533 14.7709 36.0533 15.1042 35.2C15.4509 34.3333 15.9242 33.5667 16.5242 32.9C17.1376 32.22 17.8509 31.6867 18.6642 31.3C19.4776 30.9 20.3642 30.7 21.3242 30.7C22.3242 30.7 23.2309 30.9067 24.0442 31.32C24.8576 31.7333 25.5576 32.2867 26.1442 32.98C26.7309 33.6733 27.1842 34.4467 27.5042 35.3C27.8242 36.1533 27.9842 37.0267 27.9842 37.92C27.9842 38.8667 27.8176 39.7733 27.4842 40.64C27.1509 41.4933 26.6776 42.26 26.0642 42.94C25.4642 43.6067 24.7576 44.1333 23.9442 44.52C23.1309 44.9067 22.2442 45.1 21.2842 45.1ZM16.4242 37.9C16.4242 38.62 16.5376 39.32 16.7642 40C17.0042 40.6667 17.3376 41.26 17.7642 41.78C18.1909 42.3 18.7042 42.7133 19.3042 43.02C19.9042 43.3267 20.5709 43.48 21.3042 43.48C22.0642 43.48 22.7442 43.32 23.3442 43C23.9442 42.68 24.4509 42.2533 24.8642 41.72C25.2909 41.1867 25.6109 40.5867 25.8242 39.92C26.0509 39.2533 26.1642 38.58 26.1642 37.9C26.1642 37.18 26.0442 36.4867 25.8042 35.82C25.5776 35.1533 25.2442 34.56 24.8042 34.04C24.3776 33.5067 23.8642 33.0933 23.2642 32.8C22.6776 32.4933 22.0242 32.34 21.3042 32.34C20.5442 32.34 19.8642 32.5 19.2642 32.82C18.6642 33.1267 18.1509 33.5467 17.7242 34.08C17.3109 34.6133 16.9909 35.2133 16.7642 35.88C16.5376 36.5333 16.4242 37.2067 16.4242 37.9ZM40.2759 32.4H35.3759V45H33.5759V32.4H28.6759V30.8H40.2759V32.4ZM51.9611 43.4V45H42.3211V30.8H51.7811V32.4H44.1211V37H50.7811V38.5H44.1211V43.4H51.9611ZM54.4305 45V30.8H56.2305V43.4H64.1505V45H54.4305Z" fill="#F7F8F9"/>
</svg>
